<svg width="18" height="18" viewBox="0 0 18 18" fill="none" xmlns="http://www.w3.org/2000/svg">
<path fill-rule="evenodd" clip-rule="evenodd" d="M9 18C13.9706 18 18 13.9706 18 9C18 4.02944 13.9706 0 9 0C4.02944 0 0 4.02944 0 9C0 13.9706 4.02944 18 9 18ZM6.43363 13.0841C7.11541 13.4814 7.93148 13.6801 8.88184 13.6801C9.67931 13.6801 10.3735 13.5424 10.9644 13.267C11.5552 12.9877 12.0222 12.6021 12.3651 12.1103C12.7081 11.6145 12.9064 11.046 12.9601 10.4047H10.8156C10.7495 10.7313 10.6276 11.0086 10.4499 11.2368C10.2723 11.465 10.0512 11.6401 9.78675 11.7621C9.52643 11.8801 9.23099 11.9391 8.90043 11.9391C8.43352 11.9391 8.02652 11.8211 7.67943 11.585C7.33647 11.345 7.06996 11.0047 6.87989 10.5641C6.68982 10.1195 6.59478 9.58831 6.59478 8.97061C6.59478 8.36077 6.68982 7.83749 6.87989 7.40077C7.07409 6.96405 7.34474 6.62963 7.69182 6.39749C8.03891 6.16143 8.44178 6.0434 8.90043 6.0434C9.44172 6.0434 9.87352 6.19094 10.1958 6.48602C10.5222 6.77717 10.7288 7.1411 10.8156 7.57782H12.9601C12.9105 6.92471 12.7081 6.35422 12.3527 5.86635C11.9974 5.37454 11.5201 4.99487 10.921 4.72733C10.326 4.45585 9.64213 4.32012 8.86944 4.32012C7.93974 4.32012 7.134 4.51881 6.45223 4.91618C5.77458 5.30962 5.24982 5.86044 4.87794 6.56864C4.50606 7.2729 4.32012 8.08536 4.32012 9.00602C4.32012 9.92274 4.50192 10.7332 4.86554 11.4375C5.23329 12.1378 5.75598 12.6867 6.43363 13.0841Z" fill="#616161"/>
</svg>
