<svg width="16" height="20" viewBox="0 0 16 20" fill="none" xmlns="http://www.w3.org/2000/svg">
<path d="M9.75 1H2.75C2.28587 1 1.84075 1.18964 1.51256 1.52721C1.18437 1.86477 1 2.32261 1 2.8V17.2C1 17.6774 1.18437 18.1352 1.51256 18.4728C1.84075 18.8104 2.28587 19 2.75 19H13.25C13.7141 19 14.1592 18.8104 14.4874 18.4728C14.8156 18.1352 15 17.6774 15 17.2V6.4M9.75 1L15 6.4M9.75 1L9.74992 6.4H15M11.4999 10.9H4.49991M11.4999 14.5H4.49991M6.24991 7.29998H4.49991" stroke="#616161" stroke-width="2" stroke-linecap="round" stroke-linejoin="round"/>
</svg>
